HIERARCHY
ROOT Hips
{
  OFFSET -33.2725 92.9907 47.6292
  CHANNELS 6 Xposition Yposition Zposition Zrotation Xrotation Yrotation
  JOINT Spine
  {
    OFFSET 0 8 0
    CHANNELS 6 Xposition Yposition Zposition Zrotation Xrotation Yrotation
    JOINT Spine1
    {
      OFFSET 0 8 0
      CHANNELS 6 Xposition Yposition Zposition Zrotation Xrotation Yrotation
      JOINT Spine2
      {
        OFFSET 0 8 0
        CHANNELS 6 Xposition Yposition Zposition Zrotation Xrotation Yrotation
        JOINT Spine3
        {
          OFFSET 0 8 0
          CHANNELS 6 Xposition Yposition Zposition Zrotation Xrotation Yrotation
          JOINT Neck
          {
            OFFSET 0 17.0001 0
            CHANNELS 6 Xposition Yposition Zposition Zrotation Xrotation Yrotation
            JOINT Head
            {
              OFFSET 0 10.8 0
              CHANNELS 6 Xposition Yposition Zposition Zrotation Xrotation Yrotation
              End Site
              {
                OFFSET 0 20.25 0
              }
            }
          }
          JOINT LeftShoulder
          {
            OFFSET 5 17 -0.00113449
            CHANNELS 6 Xposition Yposition Zposition Zrotation Xrotation Yrotation
            JOINT LeftShoulder2
            {
              OFFSET 6.45 0 0
              CHANNELS 6 Xposition Yposition Zposition Zrotation Xrotation Yrotation
              JOINT LeftArm
              {
                OFFSET 6.45 0 3.09442e-05
                CHANNELS 6 Xposition Yposition Zposition Zrotation Xrotation Yrotation
                JOINT LeftForeArm
                {
                  OFFSET 0 -32.4 -2
                  CHANNELS 6 Xposition Yposition Zposition Zrotation Xrotation Yrotation
                  JOINT LeftHand
                  {
                    OFFSET -1.06834e-05 -25.65 2.00001
                    CHANNELS 6 Xposition Yposition Zposition Zrotation Xrotation Yrotation
                    JOINT LeftHandThumb1
                    {
                      OFFSET -0.499995 -1.5 2.65
                      CHANNELS 6 Xposition Yposition Zposition Zrotation Xrotation Yrotation
                      JOINT LeftHandThumb2
                      {
                        OFFSET 0 -3.8 3.70001
                        CHANNELS 6 Xposition Yposition Zposition Zrotation Xrotation Yrotation
                        JOINT LeftHandThumb3
                        {
                          OFFSET 0 -3 2.7
                          CHANNELS 6 Xposition Yposition Zposition Zrotation Xrotation Yrotation
                          End Site
                          {
                            OFFSET 0 -2.3 1.8
                          }
                        }
                      }
                    }
                    JOINT LeftHandIndex
                    {
                      OFFSET 0 -1.89999 1.6
                      CHANNELS 6 Xposition Yposition Zposition Zrotation Xrotation Yrotation
                      JOINT LeftHandIndex1
                      {
                        OFFSET 0 -8.3 1.9
                        CHANNELS 6 Xposition Yposition Zposition Zrotation Xrotation Yrotation
                        JOINT LeftHandIndex2
                        {
                          OFFSET 0 -4.5 0
                          CHANNELS 6 Xposition Yposition Zposition Zrotation Xrotation Yrotation
                          JOINT LeftHandIndex3
                          {
                            OFFSET 0 -3.4 0
                            CHANNELS 6 Xposition Yposition Zposition Zrotation Xrotation Yrotation
                            End Site
                            {
                              OFFSET 0 -2.6 0
                            }
                          }
                        }
                      }
                    }
                    JOINT LeftHandMiddle
                    {
                      OFFSET -0.249994 -2.2 0.399998
                      CHANNELS 6 Xposition Yposition Zposition Zrotation Xrotation Yrotation
                      JOINT LeftHandMiddle1
                      {
                        OFFSET 0 -8.3 1
                        CHANNELS 6 Xposition Yposition Zposition Zrotation Xrotation Yrotation
                        JOINT LeftHandMiddle2
                        {
                          OFFSET -1.12789e-05 -4.65 0
                          CHANNELS 6 Xposition Yposition Zposition Zrotation Xrotation Yrotation
                          JOINT LeftHandMiddle3
                          {
                            OFFSET 0 -3.3 0
                            CHANNELS 6 Xposition Yposition Zposition Zrotation Xrotation Yrotation
                            End Site
                            {
                              OFFSET 0 -2.7 0
                            }
                          }
                        }
                      }
                    }
                    JOINT LeftHandRing
                    {
                      OFFSET -0.499993 -2.15 -0.8
                      CHANNELS 6 Xposition Yposition Zposition Zrotation Xrotation Yrotation
                      JOINT LeftHandRing1
                      {
                        OFFSET 0 -7.75 -0.200001
                        CHANNELS 6 Xposition Yposition Zposition Zrotation Xrotation Yrotation
                        JOINT LeftHandRing2
                        {
                          OFFSET 0 -3.8 0
                          CHANNELS 6 Xposition Yposition Zposition Zrotation Xrotation Yrotation
                          JOINT LeftHandRing3
                          {
                            OFFSET 0 -3.4 0
                            CHANNELS 6 Xposition Yposition Zposition Zrotation Xrotation Yrotation
                            End Site
                            {
                              OFFSET 0 -2.6 0
                            }
                          }
                        }
                      }
                    }
                    JOINT LeftHandPinky
                    {
                      OFFSET -0.749991 -1.75 -1.85
                      CHANNELS 6 Xposition Yposition Zposition Zrotation Xrotation Yrotation
                      JOINT LeftHandPinky1
                      {
                        OFFSET -1.27902e-05 -7.15 -1
                        CHANNELS 6 Xposition Yposition Zposition Zrotation Xrotation Yrotation
                        JOINT LeftHandPinky2
                        {
                          OFFSET 1.03979e-05 -3 0
                          CHANNELS 6 Xposition Yposition Zposition Zrotation Xrotation Yrotation
                          JOINT LeftHandPinky3
                          {
                            OFFSET 0 -2.35 0
                            CHANNELS 6 Xposition Yposition Zposition Zrotation Xrotation Yrotation
                            End Site
                            {
                              OFFSET 1.40649e-05 -2.09999 0
                            }
                          }
                        }
                      }
                    }
                  }
                }
              }
            }
          }
          JOINT RightShoulder
          {
            OFFSET -5 17 0.00114343
            CHANNELS 6 Xposition Yposition Zposition Zrotation Xrotation Yrotation
            JOINT RightShoulder2
            {
              OFFSET -6.45 0 0
              CHANNELS 6 Xposition Yposition Zposition Zrotation Xrotation Yrotation
              JOINT RightArm
              {
                OFFSET -6.45001 3.71447e-05 -0.000282482
                CHANNELS 6 Xposition Yposition Zposition Zrotation Xrotation Yrotation
                JOINT RightForeArm
                {
                  OFFSET 0 -32.4 -2
                  CHANNELS 6 Xposition Yposition Zposition Zrotation Xrotation Yrotation
                  JOINT RightHand
                  {
                    OFFSET 0 -25.65 2.00001
                    CHANNELS 6 Xposition Yposition Zposition Zrotation Xrotation Yrotation
                    JOINT RightHandThumb1
                    {
                      OFFSET 0.500005 -1.5 2.64999
                      CHANNELS 6 Xposition Yposition Zposition Zrotation Xrotation Yrotation
                      JOINT RightHandThumb2
                      {
                        OFFSET -1.03444e-05 -3.80001 3.7
                        CHANNELS 6 Xposition Yposition Zposition Zrotation Xrotation Yrotation
                        JOINT RightHandThumb3
                        {
                          OFFSET 0 -2.99999 2.7
                          CHANNELS 6 Xposition Yposition Zposition Zrotation Xrotation Yrotation
                          End Site
                          {
                            OFFSET 0 -2.3 1.8
                          }
                        }
                      }
                    }
                    JOINT RightHandIndex
                    {
                      OFFSET 0 -1.9 1.6
                      CHANNELS 6 Xposition Yposition Zposition Zrotation Xrotation Yrotation
                      JOINT RightHandIndex1
                      {
                        OFFSET 0 -8.29999 1.9
                        CHANNELS 6 Xposition Yposition Zposition Zrotation Xrotation Yrotation
                        JOINT RightHandIndex2
                        {
                          OFFSET 1.0246e-05 -4.5 0
                          CHANNELS 6 Xposition Yposition Zposition Zrotation Xrotation Yrotation
                          JOINT RightHandIndex3
                          {
                            OFFSET 0 -3.4 0
                            CHANNELS 6 Xposition Yposition Zposition Zrotation Xrotation Yrotation
                            End Site
                            {
                              OFFSET 0 -2.6 0
                            }
                          }
                        }
                      }
                    }
                    JOINT RightHandMiddle
                    {
                      OFFSET 0.250001 -2.2 0.399994
                      CHANNELS 6 Xposition Yposition Zposition Zrotation Xrotation Yrotation
                      JOINT RightHandMiddle1
                      {
                        OFFSET 0 -8.3 1
                        CHANNELS 6 Xposition Yposition Zposition Zrotation Xrotation Yrotation
                        JOINT RightHandMiddle2
                        {
                          OFFSET 0 -4.65 0
                          CHANNELS 6 Xposition Yposition Zposition Zrotation Xrotation Yrotation
                          JOINT RightHandMiddle3
                          {
                            OFFSET 0 -3.3 0
                            CHANNELS 6 Xposition Yposition Zposition Zrotation Xrotation Yrotation
                            End Site
                            {
                              OFFSET 1.36518e-05 -2.7 0
                            }
                          }
                        }
                      }
                    }
                    JOINT RightHandRing
                    {
                      OFFSET 0.500005 -2.15 -0.800005
                      CHANNELS 6 Xposition Yposition Zposition Zrotation Xrotation Yrotation
                      JOINT RightHandRing1
                      {
                        OFFSET -1.06941e-05 -7.75 -0.199996
                        CHANNELS 6 Xposition Yposition Zposition Zrotation Xrotation Yrotation
                        JOINT RightHandRing2
                        {
                          OFFSET 0 -3.8 0
                          CHANNELS 6 Xposition Yposition Zposition Zrotation Xrotation Yrotation
                          JOINT RightHandRing3
                          {
                            OFFSET 0 -3.4 0
                            CHANNELS 6 Xposition Yposition Zposition Zrotation Xrotation Yrotation
                            End Site
                            {
                              OFFSET 0 -2.6 0
                            }
                          }
                        }
                      }
                    }
                    JOINT RightHandPinky
                    {
                      OFFSET 0.75 -1.75 -1.85
                      CHANNELS 6 Xposition Yposition Zposition Zrotation Xrotation Yrotation
                      JOINT RightHandPinky1
                      {
                        OFFSET 0 -7.15 -0.999999
                        CHANNELS 6 Xposition Yposition Zposition Zrotation Xrotation Yrotation
                        JOINT RightHandPinky2
                        {
                          OFFSET 0 -3 0
                          CHANNELS 6 Xposition Yposition Zposition Zrotation Xrotation Yrotation
                          JOINT RightHandPinky3
                          {
                            OFFSET -1.50018e-05 -2.35 0
                            CHANNELS 6 Xposition Yposition Zposition Zrotation Xrotation Yrotation
                            End Site
                            {
                              OFFSET 1.02948e-05 -2.1 0
                            }
                          }
                        }
                      }
                    }
                  }
                }
              }
            }
          }
        }
      }
    }
  }
  JOINT LeftUpLeg
  {
    OFFSET 8 0 0
    CHANNELS 6 Xposition Yposition Zposition Zrotation Xrotation Yrotation
    JOINT LeftLeg
    {
      OFFSET 0 -45 -1
      CHANNELS 6 Xposition Yposition Zposition Zrotation Xrotation Yrotation
      JOINT LeftFoot
      {
        OFFSET 0 -41 -2
        CHANNELS 6 Xposition Yposition Zposition Zrotation Xrotation Yrotation
        JOINT LeftToeBase
        {
          OFFSET 0 -7.5 12.5
          CHANNELS 6 Xposition Yposition Zposition Zrotation Xrotation Yrotation
          JOINT LeftFootToe
          {
            OFFSET 0 0 4
            CHANNELS 6 Xposition Yposition Zposition Zrotation Xrotation Yrotation
            End Site
            {
              OFFSET 0 0 0
            }
          }
        }
      }
    }
  }
  JOINT RightUpLeg
  {
    OFFSET -8 0 0
    CHANNELS 6 Xposition Yposition Zposition Zrotation Xrotation Yrotation
    JOINT RightLeg
    {
      OFFSET 0 -45 -1.00001
      CHANNELS 6 Xposition Yposition Zposition Zrotation Xrotation Yrotation
      JOINT RightFoot
      {
        OFFSET 0 -41.0001 -2
        CHANNELS 6 Xposition Yposition Zposition Zrotation Xrotation Yrotation
        JOINT RightToeBase
        {
          OFFSET 0 -7.5 12.5
          CHANNELS 6 Xposition Yposition Zposition Zrotation Xrotation Yrotation
          JOINT RightFootToe
          {
            OFFSET 0 0 4
            CHANNELS 6 Xposition Yposition Zposition Zrotation Xrotation Yrotation
            End Site
            {
              OFFSET 0 0 0
            }
          }
        }
      }
    }
  }
}
MOTION
Frames:	3
Frame Time:	0.0111111
-58.5748 93.465 46.8136 3.02891 -1.65216 -111.081 1.42109e-14 8 -7.10543e-15 -0.375809 -2.40617 1.81654 7.10543e-15 8 -7.10543e-15 1.2913 1.4883 -10.1054 0 8 -3.55271e-15 -1.07584 0.205894 23.1424 0 8 -7.10543e-15 -0.272164 -0.00450671 9.36696 0 17 0 4.90674 1.91 -12.5989 0 10.8 -7.10543e-15 12.0089 2.69571 -29.8995 5 17 0 -0.000433599 -0.00501103 -4.54645 6.45 0 -7.10543e-15 -0.000327457 -0.0050163 -4.54484 6.45 -2.84217e-14 0 25.2117 -18.528 -30.3513 0 -32.4 -2 -83.2013 -47.7762 -39.0631 7.10543e-15 -25.65 2 30.2205 0.08259 -36.1015 -0.5 -1.5 2.65 -5.91347 -23.9999 35.5498 -1.42109e-14 -3.8 3.7 -0.0154524 44.9503 0.0101921 -1.42109e-14 -3 2.7 0.000163439 26.9351 -0.000281389 0 -1.9 1.6 1.41245e-30 6.36111e-15 -1.27222e-14 2.84217e-14 -8.3 1.9 -32.4973 13.5855 4.38582 -1.42109e-14 -4.5 -7.10543e-15 -0.547273 0.00640486 -0.00485431 -1.42109e-14 -3.4 7.10543e-15 -0.541593 0.00626328 -0.0032298 -0.25 -2.2 0.4 1.41245e-30 6.36111e-15 -1.27222e-14 -2.84217e-14 -8.3 1 -76.0082 9.96668 12.6281 1.77636e-15 -4.65 7.10543e-15 -33.1225 -0.00259937 -0.00218591 -1.42109e-14 -3.3 0 -23.9593 0.00742741 -0.00153018 -0.5 -2.15 -0.8 1.41245e-30 6.36111e-15 -1.27222e-14 0 -7.75 -0.2 -84.1702 6.26898 14.7015 -7.10543e-15 -3.8 0 -69.0242 -0.000974625 0.00102839 0 -3.4 -7.10543e-15 -50.7849 -0.00103439 -0.00134744 -0.75 -1.75 -1.85 1.41245e-30 6.36111e-15 -1.27222e-14 0 -7.15 -1 -83.3177 3.49076 13.8421 7.10543e-15 -3 7.10543e-15 -52.8698 0.00588295 -0.0105356 1.42109e-14 -2.35 0 -36.5149 0.00834974 -0.00718901 -5 17 -1.42109e-14 0.00151435 -0.00295186 -0.519029 -6.45 0 7.10543e-15 0.0018514 -0.00293356 -0.518363 -6.45 -2.84217e-14 0 -37.4183 0.989117 -26.2718 0 -32.4 -2 80.9756 -59.8384 39.1856 0 -25.65 2 -24.9206 26.8293 23.47 0.5 -1.5 2.65 2.44445 -2.87384 4.76401 3.55271e-15 -3.8 3.7 -0.00340337 2.53592 -0.0128547 3.55271e-15 -3 2.7 0.0102337 10.0717 -0.0106831 -3.55271e-15 -1.9 1.6 -0.167726 -0.00571247 -0.0388754 -1.77636e-15 -8.3 1.9 65.9951 18.6699 -13.848 0 -4.5 0 19.4095 -0.00741473 0.00628056 7.10543e-15 -3.4 0 15.5021 0.00558387 0.00530586 0.25 -2.2 0.4 8.03222e-07 -0.00733294 -2.39335e-06 0 -8.3 1 80.8437 11.2777 -14.9625 -7.10543e-15 -4.65 0 32.1722 -0.0177795 0.0066246 0 -3.3 2.84217e-14 23.3928 0.00841862 -0.00571559 0.5 -2.15 -0.8 -2.92057e-06 0.0464496 4.59736e-06 0 -7.75 -0.2 79.3778 12.8737 -18.2267 -7.10543e-15 -3.8 1.42109e-14 66.2073 -0.00887931 0.00665248 0 -3.4 1.42109e-14 47.803 0.0172354 -0.0263676 0.75 -1.75 -1.85 3.68147e-06 4.83349e-05 -2.2276e-07 -1.77636e-15 -7.15 -1 86.8003 5.31029 -18.0162 0 -3 -2.84217e-14 56.0683 0.000880257 0.0102049 7.10543e-15 -2.35 0 38.8964 0.00517281 -0.00631317 8 1.42109e-14 7.10543e-15 9.14364 -7.90646 41.9452 0 -45 -1 0.0036195 6.57327 -0.360382 0 -41 -2 -3.52585 3.53783 -48.1166 1.42109e-14 -7.5 12.5 4.30057e-09 4.47266e-16 -1.2257e-06 0 0 4 6.63232 1.76787 0.0691759 -8 0 0 -2.67053 -7.51242 -9.03165 0 -45 -1 0.00182082 4.67075 -0.401949 -7.10543e-15 -41 -2 1.54923 -0.273368 12.8379 0 -7.5 12.5 -4.45491e-11 -0.000201139 -7.58203e-10 7.10543e-15 0 4 0.334674 -3.62861 -0.011106 
-58.2593 93.4926 46.5528 2.9372 -1.70869 -111.176 0 8 0 -0.430609 -2.3494 1.80704 0 8 0 1.32389 1.49657 -10.0992 0 8 0 -1.08106 0.218055 23.1612 0 8 -7.10543e-15 -0.269973 -0.00351739 9.3804 -7.10543e-15 17 7.10543e-15 4.99658 1.93371 -12.5927 0 10.8 -7.10543e-15 12.2254 2.71955 -29.8911 5 17 -7.10543e-15 -0.000430774 -0.00501125 -4.51415 6.45 0 7.10543e-15 -0.000324248 -0.00499525 -4.51461 6.45 2.84217e-14 0 25.008 -18.3708 -30.9288 0 -32.4 -2 -83.267 -47.9446 -39.5848 -7.10543e-15 -25.65 2 29.6053 0.200622 -36.4892 -0.5 -1.5 2.65 -5.82084 -23.8231 35.5535 1.42109e-14 -3.8 3.7 -0.0154173 44.8818 0.01018 0 -3 2.7 0.000163262 26.9029 -0.000281309 0 -1.9 1.6 6.36111e-15 3.18055e-15 -3.18055e-15 0 -8.3 1.9 -32.4047 13.5737 4.36975 0 -4.5 7.10543e-15 -0.646115 0.00925729 -0.00485431 0 -3.4 -1.42109e-14 -0.637753 0.0090454 -0.0032298 -0.25 -2.2 0.4 6.36111e-15 3.18055e-15 -3.18055e-15 0 -8.3 1 -75.9073 9.99437 12.6165 -5.32907e-15 -4.65 7.10543e-15 -33.22 -0.00259937 -0.00422866 1.42109e-14 -3.3 0 -24.0174 0.00742741 -0.0027328 -0.5 -2.15 -0.8 6.36111e-15 3.18055e-15 -3.18055e-15 0 -7.75 -0.2 -84.0896 6.33046 14.7168 0 -3.8 -7.10543e-15 -69.0281 0.00051509 -0.000581904 0 -3.4 0 -50.789 0.0012235 -0.00134744 -0.75 -1.75 -1.85 6.36111e-15 3.18055e-15 -3.18055e-15 0 -7.15 -1 -83.194 3.5112 13.795 -7.10543e-15 -3 0 -52.5992 0.0073649 -0.0149987 0 -2.35 -7.10543e-15 -36.3216 0.0106483 -0.00859575 -5 17 -7.10543e-15 0.0015147 -0.00295186 -0.512167 -6.45 5.68434e-14 0 0.00185254 -0.00293315 -0.512076 -6.45 -2.84217e-14 0 -37.1497 0.977271 -26.1759 -7.10543e-15 -32.4 -2 81.2173 -60.0435 39.6941 0 -25.65 2 -24.9748 26.8628 23.7206 0.5 -1.5 2.65 2.42109 -2.87681 4.83832 0 -3.8 3.7 -0.00339698 2.56437 -0.012855 0 -3 2.7 0.0102641 10.2324 -0.0106884 0 -1.9 1.6 -0.167726 -0.00571247 -0.0388754 1.77636e-15 -8.3 1.9 66.0537 18.6314 -13.8385 0 -4.5 0 19.3291 -0.00741473 0.00628056 0 -3.4 0 15.4493 0.00558387 0.00530586 0.25 -2.2 0.4 8.03222e-07 -0.00733294 -2.39335e-06 1.77636e-15 -8.3 1 80.8626 11.2598 -14.9532 7.10543e-15 -4.65 -2.84217e-14 32.1714 -0.0177795 0.0066246 7.10543e-15 -3.3 0 23.3923 0.00841862 -0.00571559 0.5 -2.15 -0.8 -2.92057e-06 0.0464496 4.59736e-06 0 -7.75 -0.2 79.3718 12.875 -18.2233 -1.42109e-14 -3.8 0 66.2544 -0.00887931 0.00665248 0 -3.4 1.42109e-14 47.8505 0.0171654 -0.0262459 0.75 -1.75 -1.85 3.68147e-06 4.83349e-05 -2.2276e-07 -1.77636e-15 -7.15 -1 86.7962 5.31363 -18.0163 7.10543e-15 -3 0 56.1024 0.000880257 0.0102049 0 -2.35 2.84217e-14 38.9227 0.00517281 -0.00631317 8 0 3.55271e-15 9.3268 -7.9575 41.8575 7.10543e-15 -45 -1 0.00597246 6.68083 -0.396136 0 -41 -2 -3.46017 3.8129 -48.3378 0 -7.5 12.5 4.30057e-09 5.46658e-16 -1.2257e-06 0 -4.44089e-16 4 6.74684 1.75662 0.0516745 -8 0 3.55271e-15 -2.49115 -7.52281 -8.94461 0 -45 -1 0.00113238 4.51921 -0.439185 0 -41 -2 1.28556 -0.0914769 13.0355 -7.10543e-15 -7.5 12.5 -4.45491e-11 -0.000201139 -7.58212e-10 0 0 4 0.589794 -3.81159 0.00379687 
-57.9459 93.5152 46.3059 2.82442 -1.82951 -111.28 0 8 -7.10543e-15 -0.556787 -2.30153 1.79888 0 8 0 1.35272 1.51343 -10.0859 0 8 -3.55271e-15 -1.08503 0.225976 23.1692 0 8 0 -0.26756 -0.00264927 9.39122 0 17 -7.10543e-15 5.08576 1.9544 -12.5959 0 10.8 0 12.4396 2.73531 -29.9048 5 17 0 -0.00042878 -0.00501141 -4.49135 6.45 0 0 -0.000321889 -0.00497428 -4.49308 6.45 0 -1.42109e-14 24.7794 -18.2694 -31.5256 0 -32.4 -2 -83.2263 -48.1732 -40.118 7.10543e-15 -25.65 2 28.8648 0.368459 -36.9926 -0.5 -1.5 2.65 -5.66646 -23.5367 35.5957 -1.42109e-14 -3.8 3.7 -0.0150161 44.807 0.0101668 1.42109e-14 -3 2.7 0.000162871 26.8318 -0.000281132 0 -1.9 1.6 6.36111e-15 3.18055e-15 -3.18055e-15 0 -8.3 1.9 -32.2478 13.5589 4.34396 1.42109e-14 -4.5 -7.10543e-15 -0.787637 0.0153195 -0.00485431 0 -3.4 0 -0.774943 0.0149262 -0.0032298 -0.25 -2.2 0.4 6.36111e-15 3.18055e-15 -3.18055e-15 0 -8.3 1 -75.7796 10.0338 12.6051 8.88178e-15 -4.65 7.10543e-15 -33.2347 -0.00259937 -0.00828111 0 -3.3 -7.10543e-15 -24.0262 0.00742741 -0.00495054 -0.5 -2.15 -0.8 6.36111e-15 3.18055e-15 -3.18055e-15 1.42109e-14 -7.75 -0.2 -83.9791 6.41464 14.7371 -7.10543e-15 -3.8 0 -69.0357 0.00281192 -0.0032298 -2.84217e-14 -3.4 7.10543e-15 -50.7921 0.00525823 -0.00134744 -0.75 -1.75 -1.85 6.36111e-15 3.18055e-15 -3.18055e-15 0 -7.15 -1 -83.018 3.54944 13.7358 -7.10543e-15 -3 0 -52.2853 0.00927071 -0.0237675 0 -2.35 7.10543e-15 -36.0986 0.0153379 -0.011589 -5 17 0 0.00151491 -0.00295186 -0.507998 -6.45 -2.84217e-14 7.10543e-15 0.0018536 -0.00293275 -0.507353 -6.45 0 -1.42109e-14 -36.9021 0.972507 -26.079 1.42109e-14 -32.4 -2 81.448 -60.2613 40.201 0 -25.65 2 -24.9797 26.9389 23.931 0.5 -1.5 2.65 2.39831 -2.87325 4.91403 -7.10543e-15 -3.8 3.7 -0.00338982 2.59628 -0.0128553 -3.55271e-15 -3 2.7 0.0102929 10.3841 -0.0106936 -1.77636e-15 -1.9 1.6 -0.167726 -0.00571247 -0.0388754 -1.77636e-15 -8.3 1.9 66.092 18.6024 -13.8295 0 -4.5 2.84217e-14 19.2629 -0.00741473 0.00628056 7.10543e-15 -3.4 0 15.4057 0.00558387 0.00530586 0.25 -2.2 0.4 8.03222e-07 -0.00733294 -2.39335e-06 -1.77636e-15 -8.3 1 80.8719 11.2486 -14.946 7.10543e-15 -4.65 -2.84217e-14 32.1811 -0.0177795 0.0066246 7.10543e-15 -3.3 2.84217e-14 23.3981 0.00841862 -0.00571559 0.5 -2.15 -0.8 -2.92057e-06 0.0464496 4.59736e-06 1.77636e-15 -7.75 -0.2 79.3592 12.8804 -18.2205 7.10543e-15 -3.8 1.42109e-14 66.301 -0.00887931 0.00665248 -7.10543e-15 -3.4 -1.42109e-14 47.8977 0.0168938 -0.0257691 0.75 -1.75 -1.85 3.68147e-06 4.83349e-05 -2.2276e-07 -1.77636e-15 -7.15 -1 86.7829 5.3265 -18.0167 0 -3 0 56.1218 0.000880257 0.0102049 1.42109e-14 -2.35 0 38.9377 0.00517281 -0.00631317 8 1.42109e-14 0 9.46708 -8.02783 41.7478 0 -45 -1 0.0108643 6.8956 -0.440093 0 -41 -2 -3.36187 4.04894 -48.6198 0 -7.5 12.5 4.30057e-09 2.48481e-16 -1.2257e-06 0 0 4 6.79077 1.74953 0.124284 -8 0 3.55271e-15 -2.40622 -7.66622 -8.83157 -7.10543e-15 -45 -1 0.000938877 4.63388 -0.474431 -1.42109e-14 -41 -2 1.03256 -0.043955 13.2121 0 -7.5 12.5 -4.45491e-11 -0.000201139 -7.58206e-10 7.10543e-15 0 4 0.821857 -3.96951 -0.00525504 
